#N canvas 582 156 985 768 10;
#X obj 25 26 loadbang;
#X msg 27 67 \; pd dsp 1 \;;
#X obj 26 46 delay 250;
#X obj 192 94 adc~;
#X obj 460 361 dac~;
#X obj 403 185 freeverb~;
#X msg 682 178 roomsize \$1;
#X msg 772 369 damping \$1;
#X msg 771 434 width \$1;
#X msg 880 181 wet \$1;
#X msg 782 181 dry \$1;
#X msg 763 59 freeze \$1;
#X msg 683 58 bypass \$1;
#X obj 775 350 hsl 128 15 0 2 0 0 empty empty empty -2 -8 0 10 -262144
-1 -1 1500 1;
#X obj 774 415 hsl 128 15 0 2 0 0 empty empty empty -2 -8 0 10 -262144
-1 -1 12700 1;
#X obj 763 41 tgl 15 0 empty empty empty 17 7 0 10 -262144 -1 -1 0
1;
#X obj 683 40 tgl 15 0 empty empty empty 17 7 0 10 -262144 -1 -1 0
1;
#X obj 35 218 delwrite~ yam 500;
#X obj 31 265 delread~ yam 150;
#X obj 124 246 *~ 0.6;
#X obj 176 227 vsl 15 128 0 1.1 0 0 empty empty empty 0 -9 0 10 -262144
-1 -1 4000 1;
#X obj 61 292 vsl 15 128 0 499 0 0 empty empty empty 0 -9 0 10 -262144
-1 -1 4300 1;
#X floatatom 176 365 5 0 0 0 - - -, f 5;
#X floatatom 61 429 5 0 0 0 - - -, f 5;
#X obj 831 245 r stompR;
#X obj 407 219 r knobTR;
#X obj 407 243 / 512;
#X obj 389 301 *~;
#X obj 450 305 *~;
#X obj 752 244 r stompL;
#X obj 880 116 r knobBR;
#X obj 880 138 / 512;
#X obj 782 116 r knobMID;
#X obj 782 138 / 512;
#X obj 682 119 r knobL;
#X obj 683 20 r toggleT;
#X obj 763 21 r toggleB;
#X obj 372 30 openpanel;
#X msg 372 53 open \$1;
#X obj 372 75 readsf~;
#X msg 337 52 1;
#X obj 372 11 bng 15 250 50 0 empty empty empty 17 7 0 10 -262144 -1
-1;
#X obj 439 91 env~;
#X floatatom 439 111 5 0 0 0 - - -, f 5;
#N canvas 0 29 956 369 udpSTUFF 0;
#X obj 265 272 udpsend~ 1 256;
#X msg 125 115 format float;
#X msg 146 136 format 16bit;
#X msg 167 157 format 8bit;
#X msg 220 210 channels \$1;
#X obj 341 178 hradio 15 1 0 4 empty empty empty 0 -8 0 10 -4034 -1
-1 1;
#X floatatom 341 209 5 0 0 0 - - -, f 5;
#X obj 190 182 tgl 15 0 empty empty toggle_connection 17 7 0 10 -4034
-1 -1 0 1;
#X obj 265 298 tgl 15 0 empty empty empty 17 7 0 10 -262144 -1 -1 1
1;
#X obj 311 241 inlet~;
#X msg 105 95 disconnect;
#X msg 76 66 connect 255.255.255.255 8008;
#X obj 8 49 del 100;
#X obj 266 316 outlet;
#X msg 576 52 listen 8000;
#X obj 576 118 bytes2any 128 <;
#N canvas 1294 331 450 300 tolist 0;
#X obj 141 89 inlet;
#X obj 256 101 inlet;
#X obj 129 260 outlet;
#X obj 203 157 list prepend;
#X obj 208 193 list;
#X obj 142 200 list;
#X connect 0 0 3 0;
#X connect 1 0 3 1;
#X connect 1 0 5 0;
#X connect 3 0 4 0;
#X connect 4 0 3 1;
#X connect 4 0 5 1;
#X connect 5 0 2 0;
#X restore 576 186 pd tolist;
#X obj 636 149 bng 15 250 50 0 empty empty empty 17 7 0 10 -262144
-1 -1;
#X text 653 147 output;
#X msg 596 149 bang;
#X text 536 151 clear;
#X obj 576 215 print OUT;
#X obj 577 242 s ToCom;
#X obj 576 73 netreceive -b -u 8000;
#X msg 734 101 59;
#X obj 8 27 r loadbang;
#X obj 734 73 r loadbang;
#X text 268 159 # of channels to transmit;
#X text 191 32 AUDIO OVER UDPSEND~;
#X text 523 23 listens for strings from netsend \, as in [netsend 1
8000];
#X text 765 103 termination character;
#X connect 0 0 8 0;
#X connect 1 0 0 0;
#X connect 2 0 0 0;
#X connect 3 0 0 0;
#X connect 4 0 0 0;
#X connect 5 0 4 0;
#X connect 5 0 6 0;
#X connect 7 0 0 0;
#X connect 8 0 13 0;
#X connect 9 0 0 0;
#X connect 10 0 0 0;
#X connect 11 0 0 0;
#X connect 12 0 11 0;
#X connect 12 0 2 0;
#X connect 14 0 23 0;
#X connect 15 0 16 0;
#X connect 15 1 17 0;
#X connect 16 0 21 0;
#X connect 16 0 22 0;
#X connect 17 0 16 1;
#X connect 19 0 16 0;
#X connect 23 0 15 0;
#X connect 24 0 15 1;
#X connect 25 0 12 0;
#X connect 26 0 24 0;
#X restore 188 621 pd udpSTUFF;
#X obj 188 643 tgl 15 0 empty empty empty 17 7 0 10 -262144 -1 -1 1
1;
#X text 213 645 CONNECTED;
#X floatatom 682 159 5 0 0 0 - - -, f 5;
#X obj 682 139 / 980;
#X obj 682 201 s freeverb;
#X obj 403 162 r freeverb;
#X floatatom 782 160 5 0 0 0 - - -, f 5;
#X obj 782 206 s freeverb;
#X floatatom 880 161 5 0 0 0 - - -, f 5;
#X obj 880 204 s freeverb;
#X obj 752 305 tgl 15 0 empty empty empty 17 7 0 10 -262144 -1 -1 0
1;
#X obj 752 265 != 1;
#X obj 831 305 tgl 15 0 empty empty empty 17 7 0 10 -262144 -1 -1 0
1;
#X obj 831 266 != 1;
#X obj 763 80 s freeverb;
#X obj 683 79 s freeverb;
#X obj 771 456 s freeverb;
#X obj 772 391 s freeverb;
#X floatatom 835 287 5 0 0 0 - - -, f 5;
#X floatatom 756 288 5 0 0 0 - - -, f 5;
#X obj 570 37 moses 1;
#X obj 570 80 s ledTOFF;
#X obj 616 59 s ledTON;
#X obj 863 37 moses 1;
#X obj 909 59 s ledBON;
#X obj 863 80 s ledBOFF;
#N canvas 2835 248 450 300 spigot2 0;
#X obj 39 27 inlet~;
#X obj 195 26 inlet~;
#X obj 63 111 expr $f1 * -1 + 1;
#X msg 63 134 \$1 5;
#X obj 63 157 line 1 1;
#X obj 38 186 *~ 1;
#X obj 196 185 *~ 0;
#X obj 251 94 t f f;
#X obj 251 70 \$1;
#X obj 251 48 loadbang;
#X obj 328 77 inlet;
#X msg 283 145 \$1 5;
#X obj 283 168 line 0 1;
#X obj 90 253 outlet~;
#X text 317 44 float now crossfade ability;
#X connect 0 0 5 0;
#X connect 1 0 6 0;
#X connect 2 0 3 0;
#X connect 3 0 4 0;
#X connect 4 0 5 1;
#X connect 5 0 13 0;
#X connect 6 0 13 0;
#X connect 7 0 2 0;
#X connect 7 1 11 0;
#X connect 8 0 7 0;
#X connect 9 0 8 0;
#X connect 10 0 7 0;
#X connect 11 0 12 0;
#X connect 12 0 6 1;
#X restore 362 510 pd spigot2;
#N canvas 2836 247 450 300 spigot2 0;
#X obj 39 27 inlet~;
#X obj 195 26 inlet~;
#X obj 63 111 expr $f1 * -1 + 1;
#X msg 63 134 \$1 5;
#X obj 63 157 line 1 1;
#X obj 38 186 *~ 1;
#X obj 196 185 *~ 0;
#X obj 251 94 t f f;
#X obj 251 70 \$1;
#X obj 251 48 loadbang;
#X obj 328 77 inlet;
#X msg 283 145 \$1 5;
#X obj 283 168 line 0 1;
#X obj 90 253 outlet~;
#X text 317 44 float now crossfade ability;
#X connect 0 0 5 0;
#X connect 1 0 6 0;
#X connect 2 0 3 0;
#X connect 3 0 4 0;
#X connect 4 0 5 1;
#X connect 5 0 13 0;
#X connect 6 0 13 0;
#X connect 7 0 2 0;
#X connect 7 1 11 0;
#X connect 8 0 7 0;
#X connect 9 0 8 0;
#X connect 10 0 7 0;
#X connect 11 0 12 0;
#X connect 12 0 6 1;
#X restore 450 510 pd spigot2;
#X obj 347 99 s~ sampleout;
#X obj 215 592 r~ sampleout;
#X obj 351 368 s~ audioout;
#X obj 216 568 r~ audioout;
#X floatatom 407 266 5 0 0 0 - - -, f 5;
#X text 336 543 from pdpatchrepo.info/topic/1111/spigot/6;
#X connect 0 0 2 0;
#X connect 2 0 1 0;
#X connect 3 0 5 0;
#X connect 3 0 17 0;
#X connect 3 0 5 1;
#X connect 5 0 27 0;
#X connect 5 1 28 0;
#X connect 6 0 49 0;
#X connect 7 0 62 0;
#X connect 8 0 61 0;
#X connect 9 0 54 0;
#X connect 10 0 52 0;
#X connect 11 0 59 0;
#X connect 12 0 60 0;
#X connect 13 0 7 0;
#X connect 14 0 8 0;
#X connect 15 0 11 0;
#X connect 16 0 12 0;
#X connect 18 0 19 0;
#X connect 19 0 17 0;
#X connect 20 0 19 1;
#X connect 20 0 22 0;
#X connect 21 0 18 0;
#X connect 21 0 23 0;
#X connect 24 0 58 0;
#X connect 25 0 26 0;
#X connect 26 0 27 1;
#X connect 26 0 28 1;
#X connect 26 0 77 0;
#X connect 27 0 4 0;
#X connect 27 0 75 0;
#X connect 28 0 4 0;
#X connect 28 0 75 0;
#X connect 29 0 56 0;
#X connect 30 0 31 0;
#X connect 31 0 53 0;
#X connect 32 0 33 0;
#X connect 33 0 51 0;
#X connect 34 0 48 0;
#X connect 35 0 16 0;
#X connect 35 0 65 0;
#X connect 36 0 15 0;
#X connect 36 0 68 0;
#X connect 37 0 38 0;
#X connect 38 0 39 0;
#X connect 39 0 42 0;
#X connect 39 0 73 0;
#X connect 40 0 39 0;
#X connect 41 0 37 0;
#X connect 42 0 43 0;
#X connect 44 0 45 0;
#X connect 47 0 6 0;
#X connect 48 0 47 0;
#X connect 50 0 5 0;
#X connect 51 0 10 0;
#X connect 53 0 9 0;
#X connect 56 0 55 0;
#X connect 56 0 64 0;
#X connect 58 0 63 0;
#X connect 58 0 57 0;
#X connect 65 0 66 0;
#X connect 65 1 67 0;
#X connect 68 0 70 0;
#X connect 68 1 69 0;
#X connect 74 0 44 0;
#X connect 76 0 44 0;
