#N canvas 1744 134 977 740 10;
#X msg 38 53 close;
#X msg 130 55 devices;
#N canvas 0 309 789 479 bauds 0;
#X msg 319 274 baud 57600;
#X msg 357 312 baud 230400;
#X msg 338 293 baud 115200;
#X msg 300 255 baud 38400;
#X msg 281 236 baud 19200;
#X msg 262 217 baud 9600;
#X msg 243 198 baud 4800;
#X msg 224 179 baud 2400;
#X obj 431 403 s comctl;
#X msg 205 160 baud 1800;
#X msg 186 141 baud 1200;
#X msg 167 122 baud 600;
#X msg 148 103 baud 300;
#X msg 129 84 baud 200;
#X msg 91 46 baud 134;
#X msg 72 27 baud 110;
#X msg 53 8 baud 75;
#X msg 34 -11 baud 50;
#X msg 15 -30 baud 0;
#X msg 110 65 baud 150;
#X text 368 255 this is a special baud rate that can be configured
;
#X text 12 -48 standard baud rates for linux:;
#X text 64 -31 0 deasserts control lines and resets the serial port
;
#X text 435 312 won't work with standard setup. See setserial;
#X msg 431 231 baud \$1;
#X text 518 269 on-the-fly with setserial:;
#X text 519 298 gives 14400 baud instead of 38400;
#X text 517 284 "setserial /dev/ttyS0 spd_cust divisor 8";
#X msg 419 163 115200;
#X floatatom 392 104 7 1 115200 1 divisor - -, f 7;
#X obj 431 192 / 1;
#X obj 392 123 sel 0;
#X floatatom 431 212 7 0 0 0 - - -, f 7;
#X text 482 103 (1-115200);
#X obj 419 143 t b f;
#X text 390 86 On Windows some other baud rates might work:;
#X connect 0 0 8 0;
#X connect 1 0 8 0;
#X connect 2 0 8 0;
#X connect 3 0 8 0;
#X connect 4 0 8 0;
#X connect 5 0 8 0;
#X connect 6 0 8 0;
#X connect 7 0 8 0;
#X connect 9 0 8 0;
#X connect 10 0 8 0;
#X connect 11 0 8 0;
#X connect 12 0 8 0;
#X connect 13 0 8 0;
#X connect 14 0 8 0;
#X connect 15 0 8 0;
#X connect 16 0 8 0;
#X connect 17 0 8 0;
#X connect 18 0 8 0;
#X connect 19 0 8 0;
#X connect 24 0 8 0;
#X connect 28 0 30 0;
#X connect 29 0 31 0;
#X connect 30 0 32 0;
#X connect 31 1 34 0;
#X connect 32 0 24 0;
#X connect 34 0 28 0;
#X connect 34 1 30 1;
#X restore 435 71 pd bauds;
#X obj 121 348 r comctl;
#X obj 85 104 s comctl;
#X msg 183 55 devicename /dev/ttyS1;
#X obj 328 68 import mrpeach;
#X obj 544 28 loadbang;
#X obj 122 388 slipdec;
#X obj 122 412 unpackOSC;
#N canvas 808 87 635 400 sendControl 0;
#X obj 325 61 inlet;
#X obj -53 67 tgl 15 0 empty empty empty 17 7 0 10 -262144 -1 -1 1
1;
#X obj -43 134 spigot;
#X obj -52 166 spigot;
#X obj 329 173 tgl 15 0 empty empty empty 17 7 0 10 -262144 -1 -1 0
1;
#X obj 329 224 == 0;
#X obj 329 250 tgl 15 0 empty empty empty 17 7 0 10 -262144 -1 -1 0
1;
#X obj 155 239 spigot;
#X obj 96 92 spigot;
#X obj 186 76 tgl 15 0 empty empty empty 17 7 0 10 -262144 -1 -1 0
1;
#X msg 380 238 0;
#X msg 375 163 1;
#X obj 378 188 t b;
#X obj 91 318 outlet;
#X obj -53 40 loadbang;
#X text 174 291 ascii 8 5 \,;
#X text 97 42 ascii 9 4 \,;
#X text 326 318 for arduino code;
#X text 219 339 if(Serial.parseInt() == 94)digitalWrite(12 \, HIGH)
\;;
#X text 218 354 if(Serial.parseInt() == 85)digitalWrite(12 \, LOW)
\;;
#X obj 379 212 delay 20;
#X obj -50 96 metro 7;
#X msg 93 119 49 44;
#X msg 156 260 50 44;
#X connect 0 0 4 0;
#X connect 1 0 21 0;
#X connect 2 0 8 0;
#X connect 3 0 7 0;
#X connect 4 0 5 0;
#X connect 4 0 2 1;
#X connect 4 0 11 0;
#X connect 4 0 12 0;
#X connect 5 0 6 0;
#X connect 6 0 3 1;
#X connect 7 0 23 0;
#X connect 8 0 22 0;
#X connect 9 0 7 1;
#X connect 9 0 8 1;
#X connect 10 0 9 0;
#X connect 11 0 9 0;
#X connect 12 0 20 0;
#X connect 14 0 1 0;
#X connect 20 0 10 0;
#X connect 21 0 2 0;
#X connect 21 0 3 0;
#X connect 22 0 13 0;
#X connect 23 0 13 0;
#X restore 43 197 pd sendControl;
#X obj 43 169 tgl 15 0 empty empty empty 17 7 0 10 -262144 -1 -1 0
1;
#X obj 82 30 loadbang;
#X obj 63 582 tgl 15 0 empty empty empty 17 7 0 10 -262144 -1 -1 1
1;
#X obj 91 580 tgl 15 0 empty empty empty 17 7 0 10 -262144 -1 -1 1
1;
#X obj 111 580 tgl 15 0 empty empty empty 17 7 0 10 -262144 -1 -1 0
1;
#X obj 141 580 tgl 15 0 empty empty empty 17 7 0 10 -262144 -1 -1 0
1;
#X obj 43 140 metro 200;
#X obj 43 106 tgl 15 0 empty empty empty 17 7 0 10 -262144 -1 -1 0
1;
#X text 174 155 TO BE DISPLAYED ON SCREEN;
#X obj 404 42 import moocow;
#X msg 180 249 BABU;
#X msg 194 272 X;
#X msg 223 291 A B C;
#X obj 153 313 any2bytes 128 <;
#X msg 168 227 THANK U FOR SHOPPING;
#X msg 162 204 FUCK ME UP PLEASE THANK U;
#X obj 221 350 print AT COMMAND;
#X text 673 413 raw AT commands;
#X msg 366 193 REVERB;
#X msg 366 214 WET;
#X msg 367 237 DRY;
#X text 629 556 Scroll speed;
#X text 670 429 see paresserial();
#X msg 430 215 RVRB;
#X msg 458 128 49 49 62;
#X msg 442 590 65 84 68 1;
#X msg 442 614 65 84 68 0;
#X msg 443 567 65 84 66 127 127 0 0 62;
#X msg 442 645 65 84 67 1;
#X msg 442 670 65 84 67 0;
#X text 563 603 SCROLL TYPE;
#X text 567 656 LANGUAGE;
#X obj 71 491 routeOSC /interface;
#X msg 451 396 65 84 76 1 62;
#X msg 452 416 65 84 76 0 62;
#X text 556 400 LED TOP on/off;
#X msg 451 446 65 84 77 1 62;
#X msg 452 466 65 84 77 0 62;
#X obj 451 496 s comctl;
#X text 559 455 LED BOTTOM on/off;
#X obj 443 696 s comctl;
#X text 517 646 KANJI;
#X text 514 670 ENGLISH;
#X text 513 593 FLASH;
#X text 510 615 SCROLL;
#X msg 443 546 65 84 66 80 0 0 0 62;
#X obj 69 528 route 0 1 2 3 4 5 6 7;
#X floatatom 175 589 5 0 0 0 - - -, f 5;
#X floatatom 213 588 5 0 0 0 - - -, f 5;
#X floatatom 253 590 5 0 0 0 - - -, f 5;
#X floatatom 298 594 5 0 0 0 - - -, f 5;
#X obj 446 371 s comctl;
#X msg 447 347 65 84 83 3 62;
#X msg 447 327 65 84 83 2 62;
#X msg 447 307 65 84 83 1 62;
#X msg 447 287 65 84 83 0 62;
#X msg 545 287 65 84 83 4 62;
#X msg 546 307 65 84 83 5 62;
#X msg 545 327 65 84 83 6 62;
#X msg 546 347 65 84 83 7 62;
#X msg 548 134 BABU;
#X msg 377 166 mamu mamu MAMU MAMU;
#X obj 122 367 comport 1 57600;
#X msg 82 54 open 1;
#X text 193 390 port 1 /dev/ttyUSB0;
#X msg 571 206 baud 57600;
#X obj 575 238 s comctl;
#X obj 59 645 s stompR;
#X obj 89 606 s stompL;
#X obj 152 656 s toggleT;
#X obj 149 689 s toggleB;
#X obj 184 631 s knobTR;
#X obj 213 613 s knobBR;
#X obj 269 694 s knobMID;
#X obj 328 637 s knobL;
#X obj 241 127 r ToCom;
#X obj 286 480 multiplex~ . . .;
#X msg 511 101 CURRENTLY CO CURRENTLY CONNECTED BABU;
#X text 574 82 garbage buffer before;
#X obj 568 62 del 400;
#X obj 651 35 s loadbang;
#X obj 681 381 bng 15 250 50 0 empty empty empty 17 7 0 10 -262144
-1 -1;
#X obj 741 381 bng 15 250 50 0 empty empty empty 17 7 0 10 -262144
-1 -1;
#X obj 681 359 r ledTON;
#X obj 741 359 r ledTOFF;
#X obj 700 449 r ledBON;
#X obj 766 449 r ledBOFF;
#X msg 763 237;
#X msg 734 162 OLIVES IN IT;
#X connect 0 0 4 0;
#X connect 1 0 4 0;
#X connect 3 0 73 0;
#X connect 7 0 6 0;
#X connect 7 0 20 0;
#X connect 7 0 90 0;
#X connect 7 0 91 0;
#X connect 8 0 9 0;
#X connect 9 0 43 0;
#X connect 10 0 73 0;
#X connect 11 0 10 0;
#X connect 12 0 74 0;
#X connect 13 0 78 0;
#X connect 14 0 79 0;
#X connect 15 0 81 0;
#X connect 16 0 80 0;
#X connect 17 0 11 0;
#X connect 18 0 17 0;
#X connect 21 0 24 0;
#X connect 22 0 24 0;
#X connect 23 0 24 0;
#X connect 24 0 27 0;
#X connect 24 0 73 0;
#X connect 25 0 24 0;
#X connect 26 0 24 0;
#X connect 29 0 24 0;
#X connect 30 0 24 0;
#X connect 31 0 24 0;
#X connect 34 0 24 0;
#X connect 35 0 73 0;
#X connect 36 0 51 0;
#X connect 37 0 51 0;
#X connect 38 0 51 0;
#X connect 39 0 51 0;
#X connect 40 0 51 0;
#X connect 43 0 57 0;
#X connect 44 0 49 0;
#X connect 45 0 49 0;
#X connect 47 0 49 0;
#X connect 48 0 49 0;
#X connect 56 0 51 0;
#X connect 57 0 13 0;
#X connect 57 1 14 0;
#X connect 57 2 15 0;
#X connect 57 3 16 0;
#X connect 57 4 58 0;
#X connect 57 5 59 0;
#X connect 57 6 60 0;
#X connect 57 7 61 0;
#X connect 58 0 82 0;
#X connect 59 0 83 0;
#X connect 60 0 84 0;
#X connect 61 0 85 0;
#X connect 63 0 62 0;
#X connect 64 0 62 0;
#X connect 65 0 62 0;
#X connect 66 0 62 0;
#X connect 67 0 62 0;
#X connect 68 0 62 0;
#X connect 69 0 62 0;
#X connect 70 0 62 0;
#X connect 71 0 24 0;
#X connect 72 0 24 0;
#X connect 73 0 8 0;
#X connect 74 0 4 0;
#X connect 76 0 77 0;
#X connect 86 0 24 0;
#X connect 88 0 24 0;
#X connect 90 0 88 0;
#X connect 92 0 44 0;
#X connect 93 0 45 0;
#X connect 94 0 92 0;
#X connect 95 0 93 0;
#X connect 96 0 47 0;
#X connect 97 0 48 0;
#X connect 99 0 24 0;
